<?xml version="1.0" encoding="utf-8"?>
<!-- Generator: Adobe Illustrator 25.2.3, SVG Export Plug-In . SVG Version: 6.00 Build 0)  -->
<svg version="1.1" id="Layer_1" xmlns="http://www.w3.org/2000/svg" xmlns:xlink="http://www.w3.org/1999/xlink" x="0px" y="0px"
	 width="512px" height="98px" viewBox="0 0 512 98" style="enable-background:new 0 0 512 98;" xml:space="preserve">
<style type="text/css">
	.st0{fill:#4B5563;}
	.st1{fill:#345A7B;}
	.st2{fill:#497DA1;}
	.st3{fill:#3D86BC;}
	.st4{fill:#5FAEDC;}
</style>
<g>
	<g>
		<path class="st0" d="M130.3,76c2.9,0,5.1-0.4,6.4-1.1c1.3-0.7,2-1.9,2-3.6c0-1.6-0.7-2.9-2.2-3.9c-1.4-1-3.8-2.2-7.1-3.4
			c-2-0.7-3.9-1.5-5.5-2.3c-1.7-0.8-3.1-1.8-4.4-2.9c-1.2-1.1-2.2-2.4-2.9-4c-0.7-1.6-1.1-3.5-1.1-5.7c0-4.4,1.6-7.9,4.9-10.4
			c3.2-2.5,7.6-3.8,13.2-3.8c2.8,0,5.5,0.3,8.1,0.8c2.6,0.5,4.5,1,5.8,1.5l-2,9c-1.2-0.5-2.8-1.1-4.7-1.5c-1.9-0.5-4.1-0.7-6.6-0.7
			c-2.3,0-4.1,0.4-5.5,1.1c-1.4,0.8-2.1,1.9-2.1,3.5c0,0.8,0.1,1.5,0.4,2.1c0.3,0.6,0.7,1.2,1.4,1.7c0.7,0.5,1.6,1,2.7,1.6
			c1.1,0.5,2.4,1.1,4,1.6c2.6,1,4.9,1.9,6.7,2.9c1.8,0.9,3.3,2,4.5,3.2c1.2,1.2,2.1,2.6,2.6,4.1c0.5,1.5,0.8,3.4,0.8,5.5
			c0,4.6-1.7,8-5.1,10.4c-3.4,2.3-8.2,3.5-14.5,3.5c-4.2,0-7.6-0.4-10.2-1.1c-2.6-0.7-4.4-1.3-5.4-1.7l1.9-9.3
			c1.6,0.7,3.6,1.3,5.9,1.9C124.7,75.7,127.3,76,130.3,76z"/>
		<path class="st0" d="M176.8,84.9c-3.3-0.1-6-0.4-8.2-1.1c-2.2-0.7-3.9-1.6-5.2-2.9c-1.3-1.3-2.2-2.8-2.7-4.7
			c-0.5-1.9-0.8-4-0.8-6.4V14.7l11.1-1.8v54.9c0,1.3,0.1,2.5,0.3,3.4c0.2,0.9,0.6,1.7,1.1,2.3c0.5,0.6,1.3,1.1,2.2,1.5
			c0.9,0.3,2.2,0.6,3.6,0.8L176.8,84.9z"/>
		<path class="st0" d="M199.7,22c0,2.1-0.7,3.7-2,4.9c-1.3,1.2-2.9,1.8-4.8,1.8c-1.9,0-3.5-0.6-4.9-1.8c-1.3-1.2-2-2.9-2-4.9
			c0-2.1,0.7-3.8,2-5c1.3-1.2,3-1.8,4.9-1.8c1.8,0,3.4,0.6,4.8,1.8C199,18.2,199.7,19.9,199.7,22z M198.5,83.9h-11.1V36h11.1V83.9z"
			/>
		<path class="st0" d="M253.1,82.5c-2.2,0.7-5,1.3-8.3,1.8c-3.3,0.5-6.8,0.8-10.5,0.8c-3.8,0-7.2-0.6-10.2-1.7c-3-1.2-5.5-2.8-7.6-5
			c-2.1-2.2-3.7-4.8-4.9-7.9c-1.1-3.1-1.7-6.5-1.7-10.4c0-3.8,0.5-7.2,1.4-10.3c0.9-3.1,2.3-5.7,4.2-7.9c1.8-2.2,4.1-3.9,6.7-5.1
			c2.6-1.2,5.6-1.8,9.1-1.8c2.3,0,4.4,0.3,6.1,0.8c1.8,0.5,3.3,1.2,4.6,1.8v-23l11.1-1.8V82.5z M221.3,59.9c0,4.9,1.2,8.7,3.5,11.5
			c2.3,2.8,5.5,4.2,9.6,4.2c1.8,0,3.3-0.1,4.5-0.2c1.3-0.2,2.3-0.3,3.1-0.5V47.3c-1-0.7-2.3-1.3-3.9-1.9c-1.6-0.6-3.3-0.9-5.2-0.9
			c-4,0-7,1.4-8.8,4.1C222.2,51.4,221.3,55.2,221.3,59.9z"/>
		<path class="st0" d="M264.5,60.2c0-4.2,0.6-7.9,1.9-11.1c1.3-3.2,2.9-5.8,5-7.9c2.1-2.1,4.5-3.7,7.1-4.8c2.7-1.1,5.4-1.6,8.2-1.6
			c6.6,0,11.7,2,15.4,6.1c3.7,4.1,5.5,10.2,5.5,18.3c0,0.6,0,1.3,0,2.1c0,0.8-0.1,1.5-0.1,2.1H276c0.3,3.8,1.7,6.8,4.1,8.9
			c2.4,2.1,5.9,3.2,10.5,3.2c2.7,0,5.1-0.2,7.4-0.7c2.2-0.5,4-1,5.3-1.6l1.5,9.1c-0.6,0.3-1.5,0.6-2.5,1c-1.1,0.3-2.3,0.6-3.7,0.9
			c-1.4,0.3-2.9,0.5-4.4,0.7c-1.6,0.2-3.2,0.3-4.9,0.3c-4.2,0-7.9-0.6-11-1.9c-3.1-1.3-5.7-3-7.7-5.2c-2-2.2-3.5-4.9-4.5-7.9
			C265,67.1,264.5,63.8,264.5,60.2z M296.7,55.3c0-1.5-0.2-3-0.6-4.4c-0.4-1.4-1.1-2.6-1.9-3.6c-0.8-1-1.8-1.8-3-2.4
			c-1.2-0.6-2.6-0.9-4.3-0.9c-1.7,0-3.2,0.3-4.5,1c-1.3,0.6-2.4,1.5-3.3,2.5c-0.9,1-1.6,2.2-2.1,3.6c-0.5,1.3-0.8,2.7-1,4.1H296.7z"
			/>
		<path class="st0" d="M360,82.5c-2.2,0.7-5,1.3-8.3,1.8c-3.3,0.5-6.8,0.8-10.5,0.8c-3.8,0-7.2-0.6-10.2-1.7c-3-1.2-5.5-2.8-7.6-5
			c-2.1-2.2-3.7-4.8-4.9-7.9c-1.1-3.1-1.7-6.5-1.7-10.4c0-3.8,0.5-7.2,1.4-10.3c0.9-3.1,2.3-5.7,4.2-7.9c1.8-2.2,4.1-3.9,6.7-5.1
			c2.6-1.2,5.6-1.8,9.1-1.8c2.3,0,4.4,0.3,6.1,0.8c1.8,0.5,3.3,1.2,4.6,1.8v-23l11.1-1.8V82.5z M328.2,59.9c0,4.9,1.2,8.7,3.5,11.5
			c2.3,2.8,5.5,4.2,9.6,4.2c1.8,0,3.3-0.1,4.5-0.2c1.3-0.2,2.3-0.3,3.1-0.5V47.3c-1-0.7-2.3-1.3-3.9-1.9c-1.6-0.6-3.3-0.9-5.2-0.9
			c-4,0-7,1.4-8.8,4.1C329.1,51.4,328.2,55.2,328.2,59.9z"/>
		<path class="st0" d="M371.4,60.2c0-4.2,0.6-7.9,1.9-11.1c1.3-3.2,2.9-5.8,5-7.9c2.1-2.1,4.5-3.7,7.1-4.8c2.7-1.1,5.4-1.6,8.2-1.6
			c6.6,0,11.7,2,15.4,6.1c3.7,4.1,5.5,10.2,5.5,18.3c0,0.6,0,1.3,0,2.1c0,0.8-0.1,1.5-0.1,2.1h-31.6c0.3,3.8,1.7,6.8,4.1,8.9
			c2.4,2.1,5.9,3.2,10.5,3.2c2.7,0,5.1-0.2,7.4-0.7c2.2-0.5,4-1,5.3-1.6l1.5,9.1c-0.6,0.3-1.5,0.6-2.5,1c-1.1,0.3-2.3,0.6-3.7,0.9
			c-1.4,0.3-2.9,0.5-4.4,0.7c-1.6,0.2-3.2,0.3-4.9,0.3c-4.2,0-7.9-0.6-11-1.9c-3.1-1.3-5.7-3-7.7-5.2c-2-2.2-3.5-4.9-4.5-7.9
			C371.9,67.1,371.4,63.8,371.4,60.2z M403.6,55.3c0-1.5-0.2-3-0.6-4.4c-0.4-1.4-1.1-2.6-1.9-3.6c-0.8-1-1.8-1.8-3-2.4
			c-1.2-0.6-2.6-0.9-4.3-0.9c-1.7,0-3.2,0.3-4.5,1c-1.3,0.6-2.4,1.5-3.3,2.5c-0.9,1-1.6,2.2-2.1,3.6c-0.5,1.3-0.8,2.7-1,4.1H403.6z"
			/>
		<path class="st0" d="M423.7,60c0-3.5,0.5-6.9,1.6-9.9c1.1-3.1,2.7-5.8,4.7-8c2-2.3,4.5-4,7.5-5.3c2.9-1.3,6.2-1.9,9.9-1.9
			c4.5,0,8.8,0.8,12.8,2.5l-2.4,9.1c-1.3-0.5-2.7-1-4.4-1.4c-1.6-0.4-3.3-0.5-5.2-0.5c-4.3,0-7.6,1.4-9.9,4.1
			c-2.3,2.7-3.4,6.5-3.4,11.5c0,4.8,1.1,8.5,3.2,11.3c2.1,2.8,5.7,4.2,10.8,4.2c1.9,0,3.8-0.2,5.6-0.5c1.8-0.4,3.4-0.8,4.8-1.4
			l1.6,9.2c-1.2,0.6-3.1,1.2-5.5,1.6c-2.5,0.5-5,0.7-7.6,0.7c-4.1,0-7.6-0.6-10.7-1.9c-3-1.3-5.5-3-7.5-5.2c-2-2.2-3.5-4.9-4.4-8
			C424.2,67,423.7,63.6,423.7,60z"/>
		<path class="st0" d="M480.7,54.7c1.4-1.5,2.9-3,4.5-4.7c1.6-1.7,3.1-3.4,4.7-5c1.5-1.7,3-3.3,4.3-4.9c1.4-1.6,2.5-2.9,3.5-4.1
			h13.1c-3,3.4-6.3,7-9.6,10.6c-3.4,3.7-6.8,7.2-10.2,10.7c1.8,1.5,3.7,3.4,5.8,5.5c2,2.2,4,4.5,5.8,6.9c1.9,2.4,3.7,4.9,5.3,7.3
			c1.6,2.4,3,4.7,4.1,6.8h-12.8c-1.1-1.9-2.4-3.9-3.8-6c-1.4-2.1-3-4.1-4.6-6c-1.6-2-3.3-3.8-5-5.5c-1.7-1.7-3.4-3.2-5-4.4v22h-11.1
			V14.7l11.1-1.8V54.7z"/>
	</g>
	<g>
		<path class="st1" d="M50.8,77.2L31.9,64.3c-2.6-1.8-6.9-1.8-9.5,0L3.4,77.2c-2.6,1.8-2.6,4.7,0,6.5l18.9,12.9
			c2.6,1.8,6.9,1.8,9.5,0l18.9-12.9C53.5,81.9,53.5,79,50.8,77.2z"/>
		<path class="st2" d="M81.7,56.1L62.8,43.2c-2.6-1.8-6.9-1.8-9.5,0L34.3,56.1c-2.6,1.8-2.6,4.7,0,6.5l18.9,12.9
			c2.6,1.8,6.9,1.8,9.5,0l18.9-12.9C84.3,60.9,84.3,57.9,81.7,56.1z"/>
		<path class="st3" d="M50.5,35.3L31.5,22.4c-2.6-1.8-6.9-1.8-9.5,0L3,35.3c-2.6,1.8-2.6,4.7,0,6.5L22,54.8c2.6,1.8,6.9,1.8,9.5,0
			l18.9-12.9C53.1,40.1,53.1,37.1,50.5,35.3z"/>
		<path class="st4" d="M81.3,14.3L62.4,1.3c-2.6-1.8-6.9-1.8-9.5,0L33.9,14.3c-2.6,1.8-2.6,4.7,0,6.5l18.9,12.9
			c2.6,1.8,6.9,1.8,9.5,0l18.9-12.9C83.9,19,83.9,16.1,81.3,14.3z"/>
	</g>
</g>
</svg>
