<?xml version="1.0" encoding="utf-8"?>
<!-- Generator: Adobe Illustrator 25.2.3, SVG Export Plug-In . SVG Version: 6.00 Build 0)  -->
<svg version="1.1" id="Layer_1" xmlns="http://www.w3.org/2000/svg" xmlns:xlink="http://www.w3.org/1999/xlink" x="0px" y="0px"
	 width="512px" height="512px" viewBox="0 0 512 512" style="enable-background:new 0 0 512 512;" xml:space="preserve">
<style type="text/css">
	.st0{fill:#345A7B;}
	.st1{fill:#497DA1;}
	.st2{fill:#3D86BC;}
	.st3{fill:#5FAEDC;}
</style>
<g>
	<path class="st0" d="M300.3,403.4l-99-67.6c-13.7-9.4-36.1-9.4-49.8,0l-99,67.6c-13.7,9.4-13.7,24.7,0,34l99,67.6
		c13.7,9.4,36.1,9.4,49.8,0l99-67.6C314,428.1,314,412.8,300.3,403.4z"/>
	<path class="st1" d="M461.5,293.3l-99-67.6c-13.7-9.4-36.1-9.4-49.8,0l-99,67.6c-13.7,9.4-13.7,24.7,0,34l99,67.6
		c13.7,9.4,36.1,9.4,49.8,0l99-67.6C475.2,318,475.2,302.7,461.5,293.3z"/>
	<path class="st2" d="M298.3,184.6l-99-67.6c-13.7-9.4-36.1-9.4-49.8,0l-99,67.6c-13.7,9.4-13.7,24.7,0,34l99,67.6
		c13.7,9.4,36.1,9.4,49.8,0l99-67.6C312,209.3,312,194,298.3,184.6z"/>
	<path class="st3" d="M459.5,74.6L360.5,7c-13.7-9.4-36.1-9.4-49.8,0l-99,67.6c-13.7,9.4-13.7,24.7,0,34l99,67.6
		c13.7,9.4,36.1,9.4,49.8,0l99-67.6C473.2,99.2,473.2,83.9,459.5,74.6z"/>
</g>
</svg>
