<?xml version="1.0" encoding="utf-8"?>
<!-- Generator: Adobe Illustrator 25.2.3, SVG Export Plug-In . SVG Version: 6.00 Build 0)  -->
<svg version="1.1" id="Layer_1" xmlns="http://www.w3.org/2000/svg" xmlns:xlink="http://www.w3.org/1999/xlink" x="0px" y="0px"
	 width="2076.3px" height="512px" viewBox="0 0 2076.3 512" style="enable-background:new 0 0 2076.3 512;" xml:space="preserve">
<style type="text/css">
	.st0{fill:#4B5563;}
</style>
<g>
	<g>
		<path class="st0" d="M81.8,396.9c15.3,0,26.5-1.8,33.5-5.5c7-3.7,10.5-10,10.5-18.9c0-8.3-3.8-15.1-11.2-20.6
			c-7.5-5.4-19.9-11.3-37.1-17.7c-10.5-3.8-20.2-7.9-28.9-12.2c-8.8-4.3-16.4-9.3-22.7-15.1c-6.4-5.7-11.4-12.7-15.1-20.8
			C7.1,278,5.3,268,5.3,256.2c0-23,8.4-41.1,25.4-54.3c16.9-13.2,39.9-19.9,68.9-19.9c14.7,0,28.7,1.4,42.1,4.1
			c13.4,2.7,23.5,5.3,30.1,7.9l-10.5,46.9c-6.4-2.9-14.5-5.5-24.4-7.9c-9.9-2.4-21.4-3.6-34.5-3.6c-11.8,0-21.4,2-28.7,6
			c-7.3,4-11,10.1-11,18.4c0,4.2,0.7,7.8,2.2,11c1.4,3.2,3.9,6.1,7.4,8.9c3.5,2.7,8.1,5.4,13.9,8.1c5.7,2.7,12.8,5.5,21.1,8.4
			c13.7,5.1,25.4,10.1,34.9,15.1c9.6,5,17.5,10.5,23.7,16.8c6.2,6.2,10.8,13.3,13.6,21.3c2.9,8,4.3,17.5,4.3,28.7
			c0,23.9-8.9,42-26.6,54.3c-17.7,12.3-43,18.4-75.8,18.4c-22,0-39.7-1.8-53.1-5.5c-13.4-3.7-22.8-6.6-28.2-8.9l10-48.3
			c8.6,3.5,18.9,6.9,30.9,10.1C52.9,395.3,66.5,396.9,81.8,396.9z"/>
		<path class="st0" d="M324.9,443.3c-17.2-0.3-31.5-2.2-42.8-5.7c-11.3-3.5-20.3-8.5-27-15.1c-6.7-6.5-11.4-14.7-14.1-24.4
			c-2.7-9.7-4.1-20.8-4.1-33.3V76.8l57.9-9.6v286.6c0,7,0.6,12.9,1.7,17.7c1.1,4.8,3.1,8.9,6,12.2c2.9,3.3,6.8,5.9,11.7,7.7
			c4.9,1.8,11.2,3.1,18.9,4.1L324.9,443.3z"/>
		<path class="st0" d="M444.5,115.1c0,10.9-3.5,19.5-10.5,25.8c-7,6.4-15.3,9.6-24.9,9.6c-9.9,0-18.3-3.2-25.4-9.6
			c-7-6.4-10.5-15-10.5-25.8c0-11.2,3.5-19.9,10.5-26.3c7-6.4,15.5-9.6,25.4-9.6c9.6,0,17.9,3.2,24.9,9.6
			C441,95.1,444.5,103.9,444.5,115.1z M438.3,438.6h-57.9V188.3h57.9V438.6z"/>
		<path class="st0" d="M723.5,430.9c-11.5,3.5-25.9,6.7-43.3,9.6c-17.4,2.9-35.6,4.3-54.8,4.3c-19.8,0-37.5-3-53.1-9.1
			c-15.6-6.1-29-14.8-40-26.1c-11-11.3-19.5-25-25.4-41.2c-5.9-16.1-8.9-34.2-8.9-54.3c0-19.8,2.5-37.7,7.4-53.8
			c4.9-16.1,12.2-29.9,21.8-41.4c9.6-11.5,21.2-20.3,34.9-26.6c13.7-6.2,29.5-9.3,47.4-9.3c12.1,0,22.8,1.4,32.1,4.3
			c9.2,2.9,17.2,6.1,23.9,9.6V76.8l57.9-9.6V430.9z M557.5,312.7c0,25.5,6.1,45.5,18.2,60.1c12.1,14.5,28.9,21.8,50.2,21.8
			c9.2,0,17.1-0.4,23.7-1.2c6.5-0.8,11.9-1.7,16-2.6V247.1c-5.1-3.5-11.9-6.8-20.3-9.8c-8.5-3-17.5-4.5-27-4.5
			c-21.1,0-36.4,7.2-46.2,21.5C562.3,268.7,557.5,288.1,557.5,312.7z"/>
		<path class="st0" d="M783.3,314.6c0-22,3.3-41.3,9.8-57.9c6.5-16.6,15.2-30.4,26.1-41.4c10.8-11,23.3-19.3,37.3-24.9
			c14-5.6,28.4-8.4,43.1-8.4c34.5,0,61.3,10.7,80.6,32.1c19.3,21.4,28.9,53.3,28.9,95.7c0,3.2-0.1,6.8-0.2,10.8
			c-0.2,4-0.4,7.6-0.7,10.8H843.1c1.6,20.1,8.7,35.6,21.3,46.7c12.6,11,30.9,16.5,54.8,16.5c14,0,26.9-1.3,38.5-3.8
			c11.6-2.6,20.8-5.3,27.5-8.1l7.7,47.4c-3.2,1.6-7.6,3.3-13.2,5c-5.6,1.8-12,3.3-19.1,4.8c-7.2,1.4-14.9,2.6-23.2,3.6
			c-8.3,1-16.8,1.4-25.4,1.4c-22,0-41.2-3.3-57.4-9.8c-16.3-6.5-29.7-15.6-40.2-27.3c-10.5-11.6-18.3-25.4-23.5-41.2
			C785.9,350.8,783.3,333.4,783.3,314.6z M951.3,288.8c0-8-1.1-15.6-3.4-22.7c-2.2-7.2-5.5-13.4-9.8-18.7
			c-4.3-5.3-9.6-9.4-15.8-12.4c-6.2-3-13.6-4.5-22.2-4.5c-8.9,0-16.8,1.7-23.5,5c-6.7,3.3-12.4,7.7-17,13.2
			c-4.6,5.4-8.2,11.6-10.8,18.7c-2.6,7-4.3,14.2-5.3,21.5H951.3z"/>
		<path class="st0" d="M1281.9,430.9c-11.5,3.5-25.9,6.7-43.3,9.6c-17.4,2.9-35.6,4.3-54.8,4.3c-19.8,0-37.5-3-53.1-9.1
			c-15.6-6.1-29-14.8-40-26.1c-11-11.3-19.5-25-25.4-41.2c-5.9-16.1-8.9-34.2-8.9-54.3c0-19.8,2.5-37.7,7.4-53.8
			c4.9-16.1,12.2-29.9,21.8-41.4c9.6-11.5,21.2-20.3,34.9-26.6c13.7-6.2,29.5-9.3,47.4-9.3c12.1,0,22.8,1.4,32.1,4.3
			c9.3,2.9,17.2,6.1,23.9,9.6V76.8l57.9-9.6V430.9z M1115.9,312.7c0,25.5,6.1,45.5,18.2,60.1c12.1,14.5,28.9,21.8,50.2,21.8
			c9.2,0,17.1-0.4,23.7-1.2c6.5-0.8,11.9-1.7,16-2.6V247.1c-5.1-3.5-11.9-6.8-20.3-9.8c-8.5-3-17.5-4.5-27-4.5
			c-21.1,0-36.4,7.2-46.2,21.5C1120.8,268.7,1115.9,288.1,1115.9,312.7z"/>
		<path class="st0" d="M1341.7,314.6c0-22,3.3-41.3,9.8-57.9c6.5-16.6,15.2-30.4,26.1-41.4c10.8-11,23.3-19.3,37.3-24.9
			c14-5.6,28.4-8.4,43.1-8.4c34.5,0,61.3,10.7,80.6,32.1c19.3,21.4,28.9,53.3,28.9,95.7c0,3.2-0.1,6.8-0.2,10.8
			c-0.2,4-0.4,7.6-0.7,10.8h-165.1c1.6,20.1,8.7,35.6,21.3,46.7c12.6,11,30.9,16.5,54.8,16.5c14,0,26.9-1.3,38.5-3.8
			c11.6-2.6,20.8-5.3,27.5-8.1l7.7,47.4c-3.2,1.6-7.6,3.3-13.2,5c-5.6,1.8-12,3.3-19.1,4.8c-7.2,1.4-14.9,2.6-23.2,3.6
			c-8.3,1-16.8,1.4-25.4,1.4c-22,0-41.1-3.3-57.4-9.8c-16.3-6.5-29.7-15.6-40.2-27.3c-10.5-11.6-18.3-25.4-23.4-41.2
			C1344.3,350.8,1341.7,333.4,1341.7,314.6z M1509.7,288.8c0-8-1.1-15.6-3.4-22.7c-2.2-7.2-5.5-13.4-9.8-18.7
			c-4.3-5.3-9.6-9.4-15.8-12.4c-6.2-3-13.6-4.5-22.3-4.5c-8.9,0-16.8,1.7-23.4,5c-6.7,3.3-12.4,7.7-17,13.2
			c-4.6,5.4-8.2,11.6-10.8,18.7c-2.6,7-4.3,14.2-5.3,21.5H1509.7z"/>
		<path class="st0" d="M1615,313.7c0-18.5,2.9-35.8,8.6-51.9c5.7-16.1,14-30.1,24.6-41.9c10.7-11.8,23.7-21.1,39-27.8
			c15.3-6.7,32.5-10.1,51.7-10.1c23.6,0,45.9,4.3,67,12.9l-12.4,47.4c-6.7-2.9-14.3-5.3-22.7-7.2c-8.4-1.9-17.5-2.9-27-2.9
			c-22.7,0-39.9,7.1-51.7,21.3c-11.8,14.2-17.7,34.2-17.7,60.1c0,24.9,5.6,44.6,16.8,59.1c11.2,14.5,30,21.8,56.5,21.8
			c9.9,0,19.6-1,29.2-2.9c9.6-1.9,17.9-4.3,24.9-7.2l8.1,47.9c-6.4,3.2-16,6.1-28.9,8.6c-12.9,2.5-26.2,3.8-40,3.8
			c-21.4,0-40-3.3-55.7-9.8c-15.8-6.5-28.9-15.6-39.2-27.3c-10.4-11.6-18.1-25.5-23.2-41.6C1617.5,350,1615,332.5,1615,313.7z"/>
		<path class="st0" d="M1912.6,285.9c7.3-7.7,15.1-15.9,23.4-24.6c8.3-8.8,16.4-17.5,24.4-26.3c8-8.8,15.5-17.2,22.7-25.4
			c7.2-8.1,13.3-15.2,18.4-21.3h68.4c-15.9,17.9-32.7,36.4-50.4,55.5c-17.7,19.1-35.4,37.8-53.2,56c9.5,8,19.6,17.6,30.1,28.9
			c10.5,11.3,20.7,23.4,30.6,36.1c9.9,12.8,19.1,25.5,27.7,38.3c8.6,12.8,15.8,24.6,21.5,35.4h-67c-5.7-9.9-12.4-20.3-19.9-31.1
			c-7.5-10.8-15.5-21.4-24.2-31.6c-8.6-10.2-17.4-19.9-26.3-29c-8.9-9.1-17.7-16.8-26.3-23.2v114.8h-57.9V76.8l57.9-9.6V285.9z"/>
	</g>
</g>
</svg>
